<svg xmlns="http://www.w3.org/2000/svg" xmlns:xlink="http://www.w3.org/1999/xlink" width="500" zoomAndPan="magnify" viewBox="0 0 375 374.999991" height="500" preserveAspectRatio="xMidYMid meet" version="1.0"><defs><clipPath id="666522c592"><path d="M 77.1875 134 L 141 134 L 141 337.5 L 77.1875 337.5 Z M 77.1875 134 " clip-rule="nonzero"/></clipPath><clipPath id="ce9bb8d9de"><path d="M 156 82 L 220 82 L 220 337.5 L 156 337.5 Z M 156 82 " clip-rule="nonzero"/></clipPath><clipPath id="8d48007e5d"><path d="M 234 37.5 L 297.6875 37.5 L 297.6875 337.5 L 234 337.5 Z M 234 37.5 " clip-rule="nonzero"/></clipPath></defs><g clip-path="url(#666522c592)"><path fill="#5b74b6" d="M 140.441406 208.492188 L 118.050781 230.96875 L 140.441406 230.96875 L 140.441406 315.460938 L 77.378906 337.9375 L 77.378906 157.414062 L 140.441406 134.933594 Z M 140.441406 208.492188 " fill-opacity="1" fill-rule="nonzero"/></g><g clip-path="url(#ce9bb8d9de)"><path fill="#5b74b6" d="M 219.070312 150.066406 L 196.59375 172.542969 L 219.070312 172.542969 L 219.070312 315.460938 L 156.007812 337.9375 L 156.007812 230.96875 L 178.398438 230.96875 L 156.007812 208.578125 L 156.007812 105.371094 L 219.070312 82.894531 Z M 219.070312 150.066406 " fill-opacity="1" fill-rule="nonzero"/></g><g clip-path="url(#8d48007e5d)"><path fill="#2f3e5e" d="M 297.613281 315.460938 L 234.550781 337.9375 L 234.550781 172.542969 L 257.03125 172.542969 L 234.550781 150.066406 L 234.550781 60.414062 L 297.613281 37.9375 Z M 297.613281 315.460938 " fill-opacity="1" fill-rule="nonzero"/></g></svg>